<svg version="1" xmlns="http://www.w3.org/2000/svg" width="320" height="320" viewBox="0 0 240.000000 240.000000"><path d="M119 2.4c-12.3 3.4-26.9 13.5-27.1 18.8-.3 9.4-1 10.7-6.6 12.7-19.1 6.9-26.4 25.3-16 40.5 3 4.5 9.4 9.6 12.8 10.3 2.5.5 2.7.9 3.1 7.2.5 7-.3 8.8-4.7 10.5-3.1 1.1-13.5 8-13.5 8.9 0 .5 1.4 2.5 3 4.6 1.7 2.1 3.9 6.1 5 8.9 2.3 5.9 3.8 19.2 2.3 19.2-1.4 0-5.3 3.5-5.3 4.9 0 .6-.5 1.1-1.1 1.1-.9 0-4.2 6.2-4.4 8.5-.1.5-.7 2.8-1.3 5-1.7 6-2.2 9.9-2.6 19.1-.3 4.6-.7 8.8-1.1 9.3-1 1.8 3.1 8.4 8.2 13.1 2.7 2.5 5.6 5.4 6.4 6.5 2.4 3.4 12.1 11.1 17.9 14.2 4.8 2.6 14.6 6.4 16 6.2.3 0 1.8.4 3.3 1 1.5.6 4 1.3 5.5 1.6 1.5.3 3.8.7 5.2 1 1.4.3 3.9.7 5.5 1 1.7.3 4.4.7 6 1 1.7.3 16.3.8 32.5 1 24.3.4 30.5.2 35-1.1 3-.8 6.2-1.7 7.1-1.9 2.9-.6 13.3-6.4 16.8-9.2 10.9-9 14.4-15.2 12.2-22.3-.8-2.9-2.4-4.8-5.7-7-3.7-2.6-12.1-6.9-13.9-7.1-2.1-.3-11.6-3.7-11.6-4.2 0-1.6-3.8-13.6-4.9-15.8-1.4-2.6-11.9-12.9-13.2-12.9-.4 0-6.2-5.4-12.9-12-11.1-11-12.1-12.2-11.4-14.7.4-1.6.8-3.5 1-4.3.2-.8 1.1-4.7 2-8.5.9-3.9 1.8-7.9 2.1-9 .2-1.1.6-3.1.9-4.5.4-1.4.8-3.5 1.1-4.7.3-1.5-.5-2.9-2.6-4.6-1.6-1.4-3.5-2.7-4.1-2.9-.9-.3-.9-1.4.2-4.3.7-2.2 1.4-4.2 1.4-4.5 1.2-5.8 1.8-6.6 6.9-9.3 14.9-7.8 21.1-18.4 16.6-28.3-2.8-6.2-5.6-8.1-17-11.1-9.5-2.6-10.4-3-10.6-5.3-.7-11.3-3.1-23-4.7-23.1-.7-.1-4.1-.2-7.7-.4-8-.3-13.6-1.2-19.8-3C125.7.8 125 .8 119 2.4z"/></svg>